<svg xmlns="http://www.w3.org/2000/svg" width="285.234" height="565.232"><path d="M285.234 422.617a142.617 142.617 0 01-285.234 0V0h285.234z" fill="#ffe2b1"/><path d="M169.073 332.417c-1.531-1.16-1.736-3.188-.639-6.389 1.263-3.686 2.541-5.339 6.01-4.163a6.2 6.2 0 011.744.868c1.681 1.271 1.421 3.267.458 6.073a7.947 7.947 0 01-2.569 4.112 3.762 3.762 0 01-3.512.253 5.327 5.327 0 01-1.492-.754zm-59.637-9.9a6.069 6.069 0 00-1.914.391c-3.457 1.211-3.429 3.295-2.123 6.965 1.133 3.184 2.565 4.652 4.487 4.621a5.338 5.338 0 001.642-.324 3.739 3.739 0 002.6-2.36 7.928 7.928 0 00-.549-4.81c-.994-2.793-2.032-4.519-4.143-4.483zm162 100.1a128.818 128.818 0 11-128.824-128.82 128.81 128.81 0 01128.822 128.824zm-67.375-95.5l-21.9 16.96 7.9 5.73 3.492-3.291 7.545 5.659-2.151 4.282 7.628 5.517 10-25.681zm-41.791 10.32a19.787 19.787 0 005.655 2.829c9.23 3.121 14.612.256 17.994-9.577 2.249-6.566 1.527-10.639-2.411-13.618a23.092 23.092 0 00-6.527-3.177c-4.925-1.665-8.326-1.882-11.029-.71-2.754 1.2-4.783 3.93-6.377 8.583-2.569 7.486-1.736 12.319 2.695 15.67zm-33.806-14.93c.185 9.68 4.356 13.993 13.519 13.993h.6a36.812 36.812 0 009.482-1.709l.3-.087-.138-7.213-.233.047a39.264 39.264 0 01-6.918.979h-.434c-1.867 0-6.152-.016-6.259-5.26-.091-5.055 3.7-5.714 6.551-5.765l.695-.008a33.852 33.852 0 015.252.414l1.16.15-.146-7.805-.3-.075a40.817 40.817 0 00-9.439-1.527h-.331c-4.846.095-8.271 1.318-10.461 3.753-2.04 2.262-2.991 5.573-2.9 10.113zm-32.677 9.471c2.656 7.454 6.318 10.737 11.89 10.643a19.864 19.864 0 006.2-1.259c9.194-3.228 11.629-8.788 8.153-18.586-2.324-6.535-5.43-9.289-10.386-9.2a23.062 23.062 0 00-7.1 1.519c-4.9 1.721-7.711 3.638-9.1 6.227-1.417 2.631-1.307 6.017.343 10.653zm-24.028 18.27c3.638 4.708 7.119 6.839 10.958 6.7 2.7-.095 5.56-1.326 8.76-3.765a36.343 36.343 0 006.61-6.961l.193-.249-4.42-5.722-.158.174a38.461 38.461 0 01-4.984 4.862 7.96 7.96 0 01-4.4 2 5 5 0 01-4.124-2.293 5.18 5.18 0 01-1.235-4.727 7.8 7.8 0 013.062-3.765 33.592 33.592 0 015.067-3.2l.99-.541-4.791-6.191-.288.114a39.205 39.205 0 00-8.768 4.526c-7.373 5.623-8.158 11.672-2.472 19.036zm40.112 172.207l-9.522-3.9 6.835-16.443-10.157-4.159-10.378 24.963 19.675 8.066zm19.983-14.17l-10.82-1.878-4.684 26.608 10.824 1.87zm17.248 17.422l11.361-.6-.493-5.809-11.357.6-.414-4.688 11.357-.6-.185-6.582-22.332 1.179 1.48 26.971 10.966-.572zm44.456-.959l-2.257-6.089-10.7 3.839-1.7-4.424 10.7-3.836-1.638-4.554-10.7 3.836-1.563-4.191 10.7-3.836-2.08-6.164-21.028 7.544 9.234 25.413zm24.774-102.396c0-41.5-33.873-75.149-75.662-75.149s-75.658 33.644-75.658 75.149 33.873 75.145 75.658 75.145 75.662-33.644 75.662-75.145zm-14.707-75.5l3.78-7.722-2.928-2.4-6.5 5.836zm.383 70.149a29.31 29.31 0 01-11.826 19.3 31.977 31.977 0 01-2.348 1.531 29.391 29.391 0 01-3.224 29.15 29.846 29.846 0 01-41.525 6.452 29.55 29.55 0 01-2.38-1.918 29.784 29.784 0 01-46.193-8.374 29.144 29.144 0 01-1.938-22.508 28.276 28.276 0 011.081-2.829 29.464 29.464 0 0115.042-54.949 30.745 30.745 0 013.2.178 29.63 29.63 0 0119.928-21.755 29.948 29.948 0 019.08-1.417 29.6 29.6 0 0128.287 20.508c.292.9.533 1.811.734 2.723.9-.079 1.792-.13 2.687-.13a29.9 29.9 0 0124.016 12.083 29.171 29.171 0 015.379 21.951zm-11.665-17.4a22.057 22.057 0 00-17.718-8.922c-.687 0-1.373.043-2.06.107a29.037 29.037 0 01-1.582 8.16 17.921 17.921 0 0111.254 3.35 17.637 17.637 0 016.33 8.63l.249.746-8.358.13-.17-.288a9.7 9.7 0 00-2.679-2.928 10.04 10.04 0 00-13.018 1.065l-.047-.047a29.56 29.56 0 01-12.568 7.892c-.237.075-.47.13-.706.185-.13.032-.26.067-.395.1l-.9.241.189-.912a9.326 9.326 0 00-.576-6.231.644.644 0 01-.1-.339v-.41l.395-.13a21.787 21.787 0 10-28.435-25.14 29.43 29.43 0 017.036 3.891 17.594 17.594 0 0116.869-12.944l.793-.012-2.447 7.947-.328.075a9.685 9.685 0 00-3.622 1.63 9.876 9.876 0 00-2.975 12.631l-.059.028a29.188 29.188 0 013.7 14.3c0 .241-.016.474-.035.706l-.024.418-.039.935-.821-.462a10.272 10.272 0 00-5.012-1.44 9.693 9.693 0 00-1.152.075l-.734.016-.008-.564a21.919 21.919 0 10-32.95 19.079 29.557 29.557 0 015.888-5.6 17.7 17.7 0 01-7.178-9.175 17.483 17.483 0 01-.13-10.674l.229-.75 6.894 4.7-.028.335a9.538 9.538 0 00.474 3.926 10 10 0 0011.234 6.614l.012.067a30.269 30.269 0 015.86-.592 29.827 29.827 0 018.989 1.389c.225.071.438.154.651.237.134.051.268.107.406.154l.892.316-.694.647a9.369 9.369 0 00-3.161 5.418l-.012.063a.53.53 0 01-.079.225l-.233.383-.43-.126a21.965 21.965 0 00-27.22 14.253 21.512 21.512 0 001.436 16.605 21.747 21.747 0 0012.833 10.737 21.958 21.958 0 0021.4-4.684 29.172 29.172 0 01-3.445-7.34 17.708 17.708 0 01-21.309.62l-.647-.454 6.681-5 .308.134a9.746 9.746 0 003.863.8h.067a9.97 9.97 0 009.849-8.48l.067.008a29.206 29.206 0 015.473-13.728c.138-.2.292-.379.446-.56.087-.107.174-.209.26-.316l.584-.742.395.856a9.439 9.439 0 004.167 4.7l.556.316-.268.568a21.788 21.788 0 0017.872 34.34 22.07 22.07 0 0017.739-8.952 21.678 21.678 0 002.368-21.542 29.769 29.769 0 01-8.038 1.121c-.095 0-.185-.008-.28-.008a17.438 17.438 0 01-5.9 20.326l-.631.474-2.762-7.841.221-.253a9.661 9.661 0 001.949-3.449 9.9 9.9 0 00-5.126-11.929l.035-.075a29.734 29.734 0 01-11.511-9.34c-.142-.193-.268-.391-.391-.584a10.76 10.76 0 00-.229-.355l-.529-.777.939-.111a9.489 9.489 0 005.773-2.522l.2-.15.43-.213.3.371a21.816 21.816 0 0017.528 8.673 21.8 21.8 0 0017.667-34.631z" fill="#64a51e"/><path d="M33.162 124.361h10.256V96.206l-8.3 4.475-6.712-11.933 17.619-9.7h12.588v45.309h9.51v13.425H33.162zm63.027 14.916a22.05 22.05 0 01-10.161-2.237 20.2 20.2 0 01-7.32-6.337 29.546 29.546 0 01-4.427-9.79 53.845 53.845 0 010-25.172 29.51 29.51 0 014.427-9.79 20.209 20.209 0 017.32-6.341 22.1 22.1 0 0110.161-2.233 23.285 23.285 0 0110.583 2.233 18.98 18.98 0 017.217 6.34 29.282 29.282 0 014.147 9.79 59.194 59.194 0 010 25.172 29.316 29.316 0 01-4.147 9.79 18.969 18.969 0 01-7.225 6.337 23.233 23.233 0 01-10.575 2.238zm0-14.36a5.133 5.133 0 003.638-1.3 9.124 9.124 0 002.233-3.544 21.729 21.729 0 001.168-5.268 64.258 64.258 0 000-12.959 21.858 21.858 0 00-1.168-5.268 9.107 9.107 0 00-2.233-3.54 5.118 5.118 0 00-3.638-1.311 5.273 5.273 0 00-3.682 1.306 8.445 8.445 0 00-2.237 3.54 23.384 23.384 0 00-1.121 5.268 65.036 65.036 0 000 12.959 23.241 23.241 0 001.121 5.268 8.46 8.46 0 002.237 3.544 5.289 5.289 0 003.682 1.305zm53.7 14.36a22.05 22.05 0 01-10.161-2.237 20.2 20.2 0 01-7.32-6.337 29.545 29.545 0 01-4.428-9.79 53.846 53.846 0 010-25.172 29.51 29.51 0 014.428-9.79 20.209 20.209 0 017.32-6.341 22.1 22.1 0 0110.161-2.233 23.285 23.285 0 0110.583 2.233 18.98 18.98 0 017.225 6.341 29.281 29.281 0 014.147 9.79 59.364 59.364 0 010 25.172 29.315 29.315 0 01-4.147 9.79 18.969 18.969 0 01-7.225 6.337 23.233 23.233 0 01-10.589 2.237zm0-14.36a5.133 5.133 0 003.638-1.3 9.124 9.124 0 002.233-3.544 21.547 21.547 0 001.168-5.268 65.042 65.042 0 000-12.959 21.674 21.674 0 00-1.168-5.268 9.107 9.107 0 00-2.233-3.54 5.118 5.118 0 00-3.638-1.306 5.274 5.274 0 00-3.682 1.306 8.445 8.445 0 00-2.237 3.54 23.384 23.384 0 00-1.121 5.268 65.036 65.036 0 000 12.959 23.241 23.241 0 001.121 5.268 8.46 8.46 0 002.237 3.544 5.289 5.289 0 003.676 1.3zm45.123-13.61a16.162 16.162 0 01-6.716-1.306 13.112 13.112 0 01-4.755-3.54 14.923 14.923 0 01-2.794-5.363 23.443 23.443 0 01-.931-6.76 23 23 0 01.931-6.712 15 15 0 012.794-5.315 12.711 12.711 0 014.755-3.5 18.525 18.525 0 0113.425 0 13.11 13.11 0 014.8 3.5 14.665 14.665 0 012.845 5.315 23.135 23.135 0 01.931 6.712 23.581 23.581 0 01-.931 6.76 14.591 14.591 0 01-2.845 5.363 13.532 13.532 0 01-4.8 3.54 16.124 16.124 0 01-6.714 1.306zm0-8.855a3.024 3.024 0 002.237-.841 5.322 5.322 0 001.259-2.1 12.282 12.282 0 00.556-2.66 23.008 23.008 0 000-5.035 12.3 12.3 0 00-.556-2.656 5.31 5.31 0 00-1.259-2.1 3.411 3.411 0 00-4.475 0 5.22 5.22 0 00-1.259 2.1 12.069 12.069 0 00-.56 2.656 22.379 22.379 0 000 5.035 12.055 12.055 0 00.56 2.66 5.231 5.231 0 001.259 2.1 3.018 3.018 0 002.233.841zm35.148-23.4h13.329l-36.73 58.733h-13.713zm11.929 59.665a16.1 16.1 0 01-6.708-1.306 13.077 13.077 0 01-4.755-3.54 14.85 14.85 0 01-2.8-5.359 23.489 23.489 0 01-.935-6.764 22.952 22.952 0 01.935-6.708 14.93 14.93 0 012.8-5.319 12.679 12.679 0 014.755-3.5 18.526 18.526 0 0113.425 0 13.143 13.143 0 014.8 3.5 14.7 14.7 0 012.841 5.319 23.086 23.086 0 01.931 6.708 23.626 23.626 0 01-.931 6.764 14.622 14.622 0 01-2.841 5.359 13.565 13.565 0 01-4.8 3.54 16.162 16.162 0 01-6.722 1.306zm0-8.855a3.012 3.012 0 002.237-.841 5.162 5.162 0 001.259-2.1 11.887 11.887 0 00.56-2.66 22.385 22.385 0 000-5.035 11.853 11.853 0 00-.56-2.656 5.2 5.2 0 00-1.259-2.1 3.393 3.393 0 00-4.471 0 5.292 5.292 0 00-1.259 2.1 12.07 12.07 0 00-.56 2.656c-.091.935-.142 1.772-.142 2.518s.051 1.586.142 2.518a12.1 12.1 0 00.56 2.66 5.249 5.249 0 001.259 2.1 3.009 3.009 0 002.229.84zM70.133 267.671a24 24 0 01-19.5 9.044 24.866 24.866 0 01-9.258-1.665 21.283 21.283 0 01-7.186-4.623 20.833 20.833 0 01-4.664-7.06 23.78 23.78 0 01-1.666-9.04 24.272 24.272 0 011.638-9.013 21 21 0 0111.882-11.933 24.56 24.56 0 019.258-1.7 29.23 29.23 0 0110.568 1.859 17.957 17.957 0 018.2 6.479l-7.679 7.569a14.676 14.676 0 00-4.4-3.914 11.5 11.5 0 00-5.844-1.472 12.742 12.742 0 00-4.925.9 10.189 10.189 0 00-3.642 2.5 11.086 11.086 0 00-2.261 3.753 14.123 14.123 0 00.032 9.4 11.153 11.153 0 002.328 3.784 10.542 10.542 0 003.642 2.506 12.155 12.155 0 004.763.9 12.831 12.831 0 006.2-1.314 16.347 16.347 0 004.7-4.139zm24.485 8.981a23.857 23.857 0 01-9.092-1.7 22.13 22.13 0 01-7.221-4.684 21.075 21.075 0 01-4.763-7.119 24.678 24.678 0 010-18.026A21.014 21.014 0 0178.305 238a21.74 21.74 0 017.221-4.652 24.229 24.229 0 019.092-1.665 24.5 24.5 0 019.123 1.665 20.93 20.93 0 0111.948 11.779 24.625 24.625 0 010 18.026 21.221 21.221 0 01-4.727 7.119 21.7 21.7 0 01-7.217 4.684 24.121 24.121 0 01-9.126 1.696zm0-10.65a10.7 10.7 0 004.558-.927 9.869 9.869 0 003.382-2.537 10.978 10.978 0 002.1-3.784 15.133 15.133 0 000-9.238 10.978 10.978 0 00-2.1-3.784 9.917 9.917 0 00-3.382-2.537 11.683 11.683 0 00-9.123 0 9.9 9.9 0 00-3.378 2.537 11.115 11.115 0 00-2.1 3.784 15.132 15.132 0 000 9.238 11.115 11.115 0 002.1 3.784 9.853 9.853 0 003.378 2.537 10.737 10.737 0 004.566.926zm69.842 1.669a23.984 23.984 0 01-19.494 9.044 24.852 24.852 0 01-9.258-1.665 21.3 21.3 0 01-7.19-4.621 20.882 20.882 0 01-4.66-7.06 23.782 23.782 0 01-1.669-9.042 24.274 24.274 0 011.642-9.013 20.965 20.965 0 0111.882-11.933 24.546 24.546 0 019.258-1.7 29.246 29.246 0 0110.568 1.859 17.977 17.977 0 018.2 6.479l-7.679 7.569a14.69 14.69 0 00-4.4-3.914 11.488 11.488 0 00-5.84-1.472 12.742 12.742 0 00-4.925.9 10.154 10.154 0 00-3.642 2.5 11.159 11.159 0 00-2.264 3.751 14.156 14.156 0 00.036 9.4 11.092 11.092 0 002.328 3.784 10.5 10.5 0 003.636 2.505 12.122 12.122 0 004.759.9 12.847 12.847 0 006.2-1.314 16.336 16.336 0 004.692-4.139zm24.485 8.981a23.872 23.872 0 01-9.092-1.7 22.154 22.154 0 01-7.217-4.684 20.961 20.961 0 01-4.763-7.119 24.678 24.678 0 010-18.026 20.9 20.9 0 014.763-7.123 21.763 21.763 0 017.217-4.652 25.737 25.737 0 0118.215 0 20.9 20.9 0 0111.946 11.779 24.573 24.573 0 010 18.026 21.271 21.271 0 01-4.723 7.119 21.762 21.762 0 01-7.221 4.684 24.107 24.107 0 01-9.124 1.696zm0-10.65a10.706 10.706 0 004.562-.927 9.868 9.868 0 003.382-2.537 11.041 11.041 0 002.1-3.784 15.132 15.132 0 000-9.238 11.041 11.041 0 00-2.1-3.784 9.917 9.917 0 00-3.382-2.537 11.683 11.683 0 00-9.123 0 9.955 9.955 0 00-3.382 2.537 11.108 11.108 0 00-2.1 3.784 15.132 15.132 0 000 9.238 11.108 11.108 0 002.1 3.784 9.906 9.906 0 003.382 2.537 10.719 10.719 0 004.562.926zm39.054-33.167h13.326l15.493 42.792h-12.537l-2.825-8.855H226.82l-2.889 8.855H211.92zm11.1 25.661l-4.858-15.717-5.055 15.717zM33.115 210.764a13.9 13.9 0 003.583 2.5 10.511 10.511 0 004.862 1.129 7.453 7.453 0 001.326-.126 3.915 3.915 0 001.227-.414 2.562 2.562 0 00.884-.781 2.181 2.181 0 00.347-1.275 2.452 2.452 0 00-1.306-2.107 17.363 17.363 0 00-3.8-1.665l-1.815-.588a20.759 20.759 0 01-3.07-1.275 12.5 12.5 0 01-2.774-1.886 8.824 8.824 0 01-1.993-2.6 7.639 7.639 0 01-.762-3.5 10.438 10.438 0 01.837-4.187 9.678 9.678 0 012.431-3.382 11.3 11.3 0 013.954-2.257 16.853 16.853 0 015.45-.805 19.849 19.849 0 014.372.442 19.454 19.454 0 013.437 1.073 13.87 13.87 0 012.506 1.373 10.494 10.494 0 011.571 1.322l-4.42 5.588a17.812 17.812 0 00-3.583-2.083 9.519 9.519 0 00-3.832-.809 5.653 5.653 0 00-1.279.15 4.231 4.231 0 00-1.152.438 2.539 2.539 0 00-.837.758 1.99 1.99 0 00-.316 1.152 2.182 2.182 0 00.367 1.275 3.233 3.233 0 001.006.931 8.115 8.115 0 001.547.71c.608.213 1.251.434 1.941.663l1.571.489q1.669.539 3.386 1.247a11.233 11.233 0 013.1 1.91 9.51 9.51 0 012.257 2.991 9.841 9.841 0 01.884 4.384 8.477 8.477 0 01-1.054 4.163 10.576 10.576 0 01-2.849 3.283 13.679 13.679 0 01-4.23 2.132 17.444 17.444 0 01-5.181.758 22.709 22.709 0 01-8.224-1.3 17 17 0 01-5.623-3.5zm41.2 11.12a17.558 17.558 0 01-6.8-1.3 16.492 16.492 0 01-5.4-3.575 16.09 16.09 0 01-3.563-5.442 19.15 19.15 0 010-13.76 16.072 16.072 0 013.563-5.438 16.257 16.257 0 015.4-3.555 17.844 17.844 0 016.8-1.271 18.024 18.024 0 016.827 1.271 15.959 15.959 0 015.4 3.555 16.3 16.3 0 013.536 5.438 19.151 19.151 0 010 13.76 15.926 15.926 0 01-8.938 9.017 17.735 17.735 0 01-6.824 1.3zm0-8.133a7.868 7.868 0 003.413-.71 7.349 7.349 0 002.529-1.934 8.51 8.51 0 001.571-2.889 11.78 11.78 0 000-7.056 8.436 8.436 0 00-1.571-2.888 7.36 7.36 0 00-2.529-1.938 8.556 8.556 0 00-6.827 0 7.359 7.359 0 00-2.529 1.938 8.437 8.437 0 00-1.571 2.888 11.781 11.781 0 000 7.056 8.511 8.511 0 001.571 2.889 7.349 7.349 0 002.529 1.934 7.868 7.868 0 003.415.71zm21.464-25.324h8.7v19.15a7.282 7.282 0 001.251 4.412 4.8 4.8 0 004.151 1.713 4.7 4.7 0 004.124-1.74 7.431 7.431 0 001.227-4.384v-19.151h8.792v19.936a14.808 14.808 0 01-1.03 5.655 11.951 11.951 0 01-2.924 4.285 12.756 12.756 0 01-4.471 2.7 16.517 16.517 0 01-5.67.935 16.727 16.727 0 01-5.7-.935 12.954 12.954 0 01-4.495-2.668 11.749 11.749 0 01-2.92-4.262 14.976 14.976 0 01-1.034-5.706zm34.919 0h13.555a15.7 15.7 0 014.787.683 10.128 10.128 0 013.658 2.032 9.035 9.035 0 012.36 3.358 12.041 12.041 0 01.837 4.652 10.719 10.719 0 01-1.425 5.607 10.95 10.95 0 01-3.78 3.8l7.024 12.541h-9.336l-5.548-11.12h-3.641v11.12h-8.5zm12.722 14.743a3.833 3.833 0 002.794-1.054 3.749 3.749 0 001.081-2.818 4.089 4.089 0 00-1.03-2.94 3.834 3.834 0 00-2.9-1.077h-4.176v7.888zm48.714 11.857a17.8 17.8 0 01-14.585 6.91 18.253 18.253 0 01-6.921-1.275 15.614 15.614 0 01-8.871-8.918 18.5 18.5 0 01-1.251-6.91 18.825 18.825 0 011.231-6.882 16.217 16.217 0 013.484-5.481 15.806 15.806 0 015.406-3.626 17.887 17.887 0 016.921-1.3 21.536 21.536 0 017.908 1.421 13.5 13.5 0 016.136 4.944l-5.746 5.785a10.968 10.968 0 00-3.287-2.991 8.478 8.478 0 00-4.372-1.125 9.437 9.437 0 00-3.682.683 7.622 7.622 0 00-2.727 1.914 8.514 8.514 0 00-1.7 2.865 11 11 0 00.028 7.178 8.54 8.54 0 001.74 2.889 7.936 7.936 0 002.727 1.91 8.906 8.906 0 003.559.687 9.488 9.488 0 004.645-1 12.48 12.48 0 003.508-3.161zm4.179-26.6h23.576v7.49h-14.887v5.047h12.229v7.056h-12.229v5.584h15.915v7.494h-24.6zm30.349 0h12.572a23.833 23.833 0 017 .979 15.359 15.359 0 015.576 2.987 13.494 13.494 0 013.682 5.142 18.907 18.907 0 011.33 7.395 17.167 17.167 0 01-1.349 7.079 14.3 14.3 0 01-3.709 5.047 15.464 15.464 0 01-5.6 3.039 23.546 23.546 0 01-6.973 1h-12.529zm12.227 25.028a8.206 8.206 0 008.938-8.717 11.054 11.054 0 00-.537-3.552 7.293 7.293 0 00-1.649-2.742 7.486 7.486 0 00-2.774-1.788 11.121 11.121 0 00-3.978-.639h-3.536v17.438zM32.2 168.17a10.106 10.106 0 002.589 1.811 7.506 7.506 0 003.5.821 5.417 5.417 0 00.955-.091 2.873 2.873 0 00.888-.3 1.932 1.932 0 00.639-.568 1.589 1.589 0 00.245-.927 1.778 1.778 0 00-.935-1.527 12.939 12.939 0 00-2.746-1.211l-1.31-.422a15.031 15.031 0 01-2.211-.929 9.227 9.227 0 01-2-1.369 6.406 6.406 0 01-1.432-1.882 5.544 5.544 0 01-.549-2.541 7.611 7.611 0 01.6-3.042 7.027 7.027 0 011.756-2.454 8.07 8.07 0 012.849-1.634 12.039 12.039 0 013.93-.588 14.361 14.361 0 013.157.32 13.91 13.91 0 012.478.785 9.7 9.7 0 011.807.994 7.357 7.357 0 011.133.959l-3.193 4.052a13.112 13.112 0 00-2.585-1.511 6.869 6.869 0 00-2.762-.588 4.1 4.1 0 00-.923.11 3.021 3.021 0 00-.829.32 1.737 1.737 0 00-.6.552 1.437 1.437 0 00-.229.833 1.581 1.581 0 00.264.923 2.308 2.308 0 00.726.675 5.53 5.53 0 001.113.517c.442.158.9.316 1.4.481l1.133.355c.805.26 1.618.564 2.447.908a8.03 8.03 0 012.233 1.385 6.9 6.9 0 011.63 2.17 7.206 7.206 0 01.635 3.181 6.153 6.153 0 01-.762 3.023 7.6 7.6 0 01-2.056 2.383 9.716 9.716 0 01-3.046 1.547 12.53 12.53 0 01-3.737.549 16.287 16.287 0 01-5.935-.943 12.23 12.23 0 01-4.057-2.541zm18.389-16.21h6.27v13.9a5.345 5.345 0 00.9 3.2 3.454 3.454 0 003 1.239 3.381 3.381 0 002.975-1.259 5.428 5.428 0 00.888-3.185v-13.9h6.337v14.472a10.786 10.786 0 01-.742 4.1 8.73 8.73 0 01-2.111 3.113 9.287 9.287 0 01-3.22 1.957 11.94 11.94 0 01-4.1.675 12.09 12.09 0 01-4.108-.675 9.448 9.448 0 01-3.24-1.941 8.474 8.474 0 01-2.107-3.094 10.9 10.9 0 01-.746-4.139zm25.788 16.211a10.247 10.247 0 002.589 1.811 7.534 7.534 0 003.508.821 5.452 5.452 0 00.955-.091 2.909 2.909 0 00.888-.3 1.971 1.971 0 00.639-.568 1.619 1.619 0 00.245-.927 1.774 1.774 0 00-.939-1.527 12.8 12.8 0 00-2.743-1.211l-1.31-.422a15.032 15.032 0 01-2.22-.93 9.227 9.227 0 01-2-1.369 6.339 6.339 0 01-1.432-1.882 5.544 5.544 0 01-.552-2.541 7.614 7.614 0 01.6-3.042 7.027 7.027 0 011.756-2.454 8.034 8.034 0 012.849-1.634 12.039 12.039 0 013.93-.588 14.386 14.386 0 013.157.32 13.911 13.911 0 012.478.785 9.963 9.963 0 011.807.994 7.356 7.356 0 011.133.959l-3.188 4.053a13.225 13.225 0 00-2.585-1.511 6.869 6.869 0 00-2.762-.588 4.073 4.073 0 00-.923.11 3.047 3.047 0 00-.833.32 1.809 1.809 0 00-.6.552 1.437 1.437 0 00-.229.833 1.61 1.61 0 00.264.923 2.4 2.4 0 00.726.675 5.675 5.675 0 001.117.517c.438.158.9.316 1.4.481l1.133.355c.8.26 1.618.564 2.443.908a8.03 8.03 0 012.233 1.385 6.841 6.841 0 011.63 2.17 7.15 7.15 0 01.639 3.181 6.156 6.156 0 01-.766 3.023 7.584 7.584 0 01-2.052 2.383 9.716 9.716 0 01-3.046 1.547 12.549 12.549 0 01-3.737.549 16.287 16.287 0 01-5.935-.943 12.19 12.19 0 01-4.057-2.541zm23.349-10.7h-7.265v-5.509h20.8v5.509h-7.19v18.2H99.73zm19.344-5.509h7.194l8.358 23.712h-6.773l-1.523-4.909h-7.9l-1.559 4.909h-6.483zm5.986 14.218l-2.624-8.709-2.723 8.709zm12.012-14.218h6.27v23.712h-6.27zm11.4 0h5.706l9.068 13.223V151.96h6.2v23.712h-5.353l-9.419-13.618v13.618h-6.2zm32.1 0h7.194l8.358 23.712h-6.768l-1.523-4.909h-7.9l-1.559 4.909h-6.483zm5.986 14.218l-2.62-8.709-2.727 8.709zm12.012-14.218h9.6a13.058 13.058 0 014.112.548 7.3 7.3 0 012.581 1.417 4.665 4.665 0 011.33 1.993 6.866 6.866 0 01.375 2.214 4.805 4.805 0 01-.339 1.851 5.635 5.635 0 01-1.965 2.482 4.43 4.43 0 01-1.133.6 9.361 9.361 0 011.488.639 6.344 6.344 0 011.523 1.144 6.439 6.439 0 011.2 1.709 5.115 5.115 0 01.5 2.312 5.747 5.747 0 01-2.462 5.181q-2.462 1.622-7.21 1.618h-9.6zm8.855 9.526a3.6 3.6 0 001.969-.549 2.075 2.075 0 00.864-1.9 2.953 2.953 0 00-.245-1.263 2.022 2.022 0 00-.655-.8 2.853 2.853 0 00-.919-.41 4.34 4.34 0 00-1.014-.122h-2.732v5.047zm.462 9.707a9.156 9.156 0 001.168-.087 3.579 3.579 0 001.172-.375 2.4 2.4 0 00.884-.852 2.884 2.884 0 00.355-1.531 2.623 2.623 0 00-.355-1.44 2.4 2.4 0 00-.884-.833 3.8 3.8 0 00-1.172-.395 7.1 7.1 0 00-1.168-.1h-3.194v5.615zm13.286-19.233h6.27v18.165h10.946v5.548h-17.22zm21.5 14.257l-8.4-14.257h7.194l4.605 8.46 4.321-8.46h6.981l-8.433 14.218v9.494h-6.27z" fill="#2b1c71"/></svg>